<?xml version="1.0" encoding="UTF-8"?>
<svg id="Capa_2" data-name="Capa 2" xmlns="http://www.w3.org/2000/svg" viewBox="0 0 430.53 236.45">
  <defs>
    <style>
      .cls-1 {
        fill: #4d4d4d;
      }

      .cls-2 {
        fill: none;
        stroke: #4d4d4d;
        stroke-miterlimit: 10;
        stroke-width: 2px;
      }

      .cls-3 {
        fill: gray;
      }
    </style>
  </defs>
  <g id="Capa_1-2" data-name="Capa 1">
    <g>
      <g>
        <rect class="cls-3" x="214.89" width=".77" height="28.11"/>
        <g>
          <rect class="cls-3" x="191.39" y="39.64" width="47.62" height=".69"/>
          <polygon class="cls-3" points="215.29 29.65 197.66 36.44 232.93 36.44 215.29 29.65"/>
          <path class="cls-3" d="m191.39,38.98h47.62v-.68h4l-27.81-11.81-27.81,11.81h4v.68Zm23.9-10.11l21.53,8.29h-43.05l21.53-8.29Z"/>
          <path class="cls-3" d="m353.47,67.57v-1.84h-102.84v-6.28h-2.7l-8.54-13.53-.38-.52v-4.41h-47.62v5.07l-8.45,13.38h-2.7v6.28h-102.1v1.84h101.34v2.07h-101.34v1.69h275.33v-1.69h-102.35v-2.07h102.35Zm-146.34-1.71c0,.3-.25.55-.55.55h-7.33c-.3,0-.55-.25-.55-.55v-12.15h2.95c-.3.25-.5.65-.5,1.11v1.18s0,.06,0,.09c-.49.3-.81.83-.81,1.42v1.45h5.15v-1.45c0-.59-.32-1.12-.81-1.42,0-.03,0-.06,0-.09v-1.18c0-.46-.2-.86-.5-1.11h2.95v12.15Zm0-12.94h-8.43v-.87c0-2.12,1.72-3.83,3.83-3.83h.76c2.12,0,3.83,1.72,3.83,3.83v.87Zm8.22,5.04c-2.69,0-4.87-2.18-4.87-4.87s2.18-4.87,4.87-4.87,4.87,2.18,4.87,4.87-2.18,4.87-4.87,4.87Zm16.66,7.89c0,.3-.25.55-.55.55h-7.33c-.3,0-.55-.25-.55-.55v-12.15h1.35c-.12.17-.2.36-.2.6v.82s0,.04,0,.07c-.31.21-.52.57-.52.99v1h3.28v-1c0-.41-.21-.77-.52-.99,0-.02,0-.04,0-.07v-.82c0-.23-.09-.43-.2-.6h2.03c-.12.17-.2.36-.2.6v.82s0,.04,0,.07c-.31.21-.52.57-.52.99v1h3.28v-1c0-.41-.21-.77-.52-.99,0-.02,0-.04,0-.07v-.82c0-.23-.09-.43-.2-.6h1.35v12.15Zm0-12.94h-8.43v-.87c0-2.12,1.72-3.83,3.83-3.83h.76c2.12,0,3.83,1.72,3.83,3.83v.87Z"/>
        </g>
        <g>
          <circle class="cls-3" cx="215.35" cy="53.09" r=".83"/>
          <rect class="cls-3" x="215.29" y="49.63" width=".29" height="4.17"/>
          <rect class="cls-3" x="213.74" y="51.56" width=".29" height="4.17" transform="translate(204.37 273.94) rotate(-101.61)"/>
        </g>
        <g>
          <path class="cls-3" d="m42.58,49.73L2.82,64.21h6.61v.81h66.29v-.81h6.61l-39.76-14.48Zm-25.18,12.1l24.93-8.29,24.93,8.29H17.41Z"/>
          <polygon class="cls-3" points="22.21 61.05 62.47 61.05 42.34 54.36 22.21 61.05"/>
          <polygon class="cls-3" points="9.44 66.76 75.73 66.76 75.73 65.73 75.73 65.68 9.44 65.68 9.44 66.76"/>
          <path class="cls-3" d="m9.44,92.06h66.29v-24.64H9.44v24.64Zm49.08-19.74h9.53v15.53h-9.53v-15.53Zm-14.48,0h9.53v15.53h-9.53v-15.53Zm-14.48,0h9.53v15.53h-9.53v-15.53Zm-14.48,0h9.53v15.53h-9.53v-15.53Z"/>
          <path class="cls-3" d="m78.14,71.13v20.93h275.33v-20.93H78.14Zm22.2,16.72h-9.53v-13.24h9.53v13.24Zm26.46,0h-9.53v-13.24h9.53v13.24Zm26.83,0h-9.53v-13.24h9.53v13.24Zm26.46,0h-9.53v-13.24h9.53v13.24Zm27.2,0h-9.53v-13.24h9.53v13.24Zm25.34,0h-9.53v-13.24h9.53v13.24Zm27.2,0h-9.53v-13.24h9.53v13.24Zm26.46,0h-9.53v-13.24h9.53v13.24Zm26.46,0h-9.53v-13.24h9.53v13.24Zm26.83,0h-9.53v-13.24h9.53v13.24Z"/>
          <polygon class="cls-3" points="369.09 61.05 409.34 61.05 389.21 54.36 369.09 61.05"/>
          <path class="cls-3" d="m389.78,49.73l-39.76,14.48h6.61v.81h66.29v-.81h6.61l-39.76-14.48Zm-25.51,12.1l24.93-8.29,24.93,8.29h-49.87Z"/>
          <polygon class="cls-3" points="356.64 65.73 355.88 65.73 355.88 66.76 422.93 66.76 422.93 65.68 356.64 65.68 356.64 65.73"/>
          <path class="cls-3" d="m355.88,92.06h67.05v-24.64h-67.05v24.64Zm49.69-19.74h9.53v15.53h-9.53v-15.53Zm-14.48,0h9.53v15.53h-9.53v-15.53Zm-14.48,0h9.53v15.53h-9.53v-15.53Zm-14.48,0h9.53v15.53h-9.53v-15.53Z"/>
        </g>
        <g>
          <polygon class="cls-3" points="8.4 134.53 2.1 134.53 2.1 139.34 75.73 139.34 75.73 120.1 8.4 120.1 8.4 134.53"/>
          <path class="cls-3" d="m78.14,139.34h275.33v-19.24H78.14v19.24Zm253.06-12.58v-.11h.12l3.55-1.33,3.55,1.33h.12v.11l2.1,1.89h-2.1v7.71h-7.34v-7.71h-2.1l2.1-1.89Zm-26.61,0v-.11h.12l3.55-1.33,3.55,1.33h.12v.11l2.1,1.89h-2.1v7.71h-7.34v-7.71h-2.1l2.1-1.89Zm-26.61,0v-.11h.12l3.55-1.33,3.55,1.33h.12v.11l2.1,1.89h-2.1v7.71h-7.34v-7.71h-2.1l2.1-1.89Zm-26.61,0v-.11h.12l3.55-1.33,3.55,1.33h.12v.11l2.1,1.89h-2.1v7.71h-7.34v-7.71h-2.1l2.1-1.89Zm-26.61,0v-.11h.12l3.55-1.33,3.55,1.33h.12v.11l2.1,1.89h-2.1v7.71h-7.34v-7.71h-2.1l2.1-1.89Zm-26.61,0v-.11h.12l3.55-1.33,3.55,1.33h.12v.11l2.1,1.89h-2.1v7.71h-7.34v-7.71h-2.1l2.1-1.89Zm-26.61,0v-.11h.12l3.55-1.33,3.55,1.33h.12v.11l2.1,1.89h-2.1v7.71h-7.34v-7.71h-2.1l2.1-1.89Zm-26.61,0v-.11h.12l3.55-1.33,3.55,1.33h.12v.11l2.1,1.89h-2.1v7.71h-7.34v-7.71h-2.1l2.1-1.89Zm-26.61,0v-.11h.12l3.55-1.33,3.55,1.33h.12v.11l2.1,1.89h-2.1v7.71h-7.34v-7.71h-2.1l2.1-1.89Zm-26.61,0v-.11h.12l3.55-1.33,3.55,1.33h.12v.11l2.1,1.89h-2.1v7.71h-7.34v-7.71h-2.1l2.1-1.89Z"/>
          <polygon class="cls-3" points="423.29 134.53 423.29 120.1 355.88 120.1 355.88 139.34 429.6 139.34 429.6 134.53 423.29 134.53"/>
        </g>
        <g>
          <path class="cls-3" d="m196.26,93.93l.27,24.38h10.63l.27-24.38h-11.16Zm1.32,23.18v-14.88c0-2.61,1.74-4.72,4.35-4.72h.09c2.61,0,4.35,2.11,4.35,4.72v14.88h-8.79Z"/>
          <polygon class="cls-3" points="89.74 93.93 90 118.31 100.63 118.31 100.9 93.93 89.74 93.93"/>
          <polygon class="cls-3" points="210.23 93.93 210.5 118.31 220.13 118.31 220.39 93.93 210.23 93.93"/>
          <path class="cls-3" d="m223.21,93.93l.27,24.38h10.63l.27-24.38h-11.16Zm1.1,23.18v-14.88c0-2.61,1.74-4.72,4.35-4.72h.09c2.61,0,4.35,2.11,4.35,4.72v14.88h-8.79Z"/>
          <polygon class="cls-3" points="249.48 93.93 249.74 118.31 260.37 118.31 260.63 93.93 249.48 93.93"/>
          <polygon class="cls-3" points="78.14 93.93 78.14 118.31 86.66 118.31 86.93 93.93 78.14 93.93"/>
          <polygon class="cls-3" points="170.03 93.93 170.29 118.31 180.92 118.31 181.19 93.93 170.03 93.93"/>
          <polygon class="cls-3" points="144.16 93.93 144.42 118.31 154.01 118.31 154.28 93.93 144.16 93.93"/>
          <polygon class="cls-3" points="103.71 93.93 103.98 118.31 113.83 118.31 114.1 93.93 103.71 93.93"/>
          <polygon class="cls-3" points="130.19 93.93 130.45 118.31 141.08 118.31 141.35 93.93 130.19 93.93"/>
          <polygon class="cls-3" points="157.09 93.93 157.36 118.31 166.95 118.31 167.21 93.93 157.09 93.93"/>
          <polygon class="cls-3" points="184 93.93 184.26 118.31 193.18 118.31 193.45 93.93 184 93.93"/>
          <polygon class="cls-3" points="116.91 93.93 117.18 118.31 127.11 118.31 127.37 93.93 116.91 93.93"/>
          <polygon class="cls-3" points="237.18 93.93 237.44 118.31 246.4 118.31 246.66 93.93 237.18 93.93"/>
          <polygon class="cls-3" points="329.22 93.93 329.49 118.31 340.11 118.31 340.38 93.93 329.22 93.93"/>
          <polygon class="cls-3" points="276.4 93.93 276.66 118.31 286.42 118.31 286.69 93.93 276.4 93.93"/>
          <polygon class="cls-3" points="289.5 93.93 289.77 118.31 300.4 118.31 300.66 93.93 289.5 93.93"/>
          <polygon class="cls-3" points="316.58 93.93 316.84 118.31 326.14 118.31 326.41 93.93 316.58 93.93"/>
          <polygon class="cls-3" points="343.46 118.31 353.47 118.31 353.47 93.93 343.19 93.93 343.46 118.31"/>
          <polygon class="cls-3" points="263.45 93.93 263.71 118.31 273.32 118.31 273.59 93.93 263.45 93.93"/>
          <polygon class="cls-3" points="303.48 93.93 303.74 118.31 313.5 118.31 313.77 93.93 303.48 93.93"/>
          <path class="cls-3" d="m8.4,118.31h67.33v-24.38H8.4v24.38Zm49.34-18.55c0-2.39,1.94-4.34,4.34-4.34h.86c2.39,0,4.34,1.94,4.34,4.34v15.61c0,.34-.28.62-.62.62h-8.29c-.34,0-.62-.28-.62-.62v-15.61Zm-13.7,0c0-2.39,1.94-4.34,4.34-4.34h.86c2.39,0,4.34,1.94,4.34,4.34v15.61c0,.34-.28.62-.62.62h-8.29c-.34,0-.62-.28-.62-.62v-15.61Zm-14.48,0c0-2.39,1.94-4.34,4.34-4.34h.86c2.39,0,4.34,1.94,4.34,4.34v15.61c0,.34-.28.62-.62.62h-8.29c-.34,0-.62-.28-.62-.62v-15.61Zm-14.48,0c0-2.39,1.94-4.34,4.34-4.34h.86c2.39,0,4.34,1.94,4.34,4.34v15.61c0,.34-.28.62-.62.62h-8.29c-.34,0-.62-.28-.62-.62v-15.61Z"/>
          <path class="cls-3" d="m355.88,93.93v24.38h67.42v-24.38h-67.42Zm16.4,21.44c0,.34-.28.62-.62.62h-8.29c-.34,0-.62-.28-.62-.62v-15.61c0-2.39,1.94-4.34,4.34-4.34h.86c2.39,0,4.34,1.94,4.34,4.34v15.61Zm14.48,0c0,.34-.28.62-.62.62h-8.29c-.34,0-.62-.28-.62-.62v-15.61c0-2.39,1.94-4.34,4.34-4.34h.86c2.39,0,4.34,1.94,4.34,4.34v15.61Zm14.48,0c0,.34-.28.62-.62.62h-8.29c-.34,0-.62-.28-.62-.62v-15.61c0-2.39,1.94-4.34,4.34-4.34h.86c2.39,0,4.34,1.94,4.34,4.34v15.61Zm13.7,0c0,.34-.28.62-.62.62h-8.29c-.34,0-.62-.28-.62-.62v-15.61c0-2.39,1.94-4.34,4.34-4.34h.86c2.39,0,4.34,1.94,4.34,4.34v15.61Z"/>
        </g>
      </g>
      <g>
        <path class="cls-1" d="m15.11,168.22c1.53,1.78,2.29,4.12,2.29,7.01s-.74,5.11-2.22,6.85c-1.48,1.74-3.42,2.6-5.83,2.6h-4.53c-.13,0-.19.06-.19.19v13.98c0,.32-.16.48-.48.48H.48c-.32,0-.48-.16-.48-.48v-32.83c0-.32.16-.48.48-.48h8.63c2.47,0,4.48.89,6,2.68Zm-3.54,11.23c.8-1.01,1.21-2.39,1.21-4.12s-.4-3.17-1.21-4.22c-.8-1.04-1.86-1.57-3.18-1.57h-3.57c-.13,0-.19.07-.19.19v11.04c0,.13.06.19.19.19h3.57c1.32,0,2.38-.51,3.18-1.52Z"/>
        <path class="cls-1" d="m34.03,198.91l-1.06-5.54c0-.06-.02-.11-.07-.14-.05-.03-.1-.05-.17-.05h-7.86c-.06,0-.12.02-.17.05-.05.03-.07.08-.07.14l-1.01,5.54c-.03.29-.21.43-.53.43h-3.66c-.16,0-.28-.05-.36-.14-.08-.1-.1-.22-.07-.39l7.18-32.78c.06-.29.24-.43.53-.43h4.29c.32,0,.5.15.53.43l7.23,32.78v.1c0,.29-.14.43-.43.43h-3.76c-.29,0-.47-.14-.53-.43Zm-8.44-9.4h6.41c.1,0,.14-.06.14-.19l-3.28-17.11c-.03-.06-.06-.1-.1-.1s-.06.03-.1.1l-3.23,17.11c0,.13.05.19.14.19Z"/>
        <path class="cls-1" d="m43.34,198.86v-32.78c0-.32.16-.48.48-.48h3.66c.32,0,.48.16.48.48v29.07c0,.13.06.19.19.19h10.8c.32,0,.48.16.48.48v3.04c0,.32-.16.48-.48.48h-15.14c-.32,0-.48-.16-.48-.48Z"/>
        <path class="cls-1" d="m78.24,198.91l-1.06-5.54c0-.06-.02-.11-.07-.14-.05-.03-.1-.05-.17-.05h-7.86c-.06,0-.12.02-.17.05-.05.03-.07.08-.07.14l-1.01,5.54c-.03.29-.21.43-.53.43h-3.66c-.16,0-.28-.05-.36-.14-.08-.1-.1-.22-.07-.39l7.18-32.78c.06-.29.24-.43.53-.43h4.29c.32,0,.5.15.53.43l7.23,32.78v.1c0,.29-.14.43-.43.43h-3.76c-.29,0-.47-.14-.53-.43Zm-8.44-9.4h6.41c.1,0,.14-.06.14-.19l-3.28-17.11c-.03-.06-.06-.1-.1-.1s-.06.03-.1.1l-3.23,17.11c0,.13.05.19.14.19Z"/>
        <path class="cls-1" d="m88.63,197.34c-1.59-1.59-2.39-3.7-2.39-6.34v-17.11c0-2.63.8-4.74,2.39-6.32,1.59-1.57,3.69-2.36,6.29-2.36s4.75.79,6.34,2.36c1.59,1.58,2.39,3.68,2.39,6.32v.77c0,.32-.16.48-.48.48l-3.66.19c-.32,0-.48-.16-.48-.48v-1.25c0-1.32-.38-2.38-1.13-3.18-.76-.8-1.74-1.21-2.96-1.21s-2.2.4-2.94,1.21c-.74.8-1.11,1.86-1.11,3.18v17.74c0,1.32.37,2.38,1.11,3.18.74.8,1.72,1.21,2.94,1.21s2.21-.4,2.96-1.21c.75-.8,1.13-1.86,1.13-3.18v-1.25c0-.32.16-.48.48-.48l3.66.19c.32,0,.48.16.48.48v.72c0,2.64-.8,4.75-2.39,6.34s-3.7,2.39-6.34,2.39-4.7-.79-6.29-2.39Z"/>
        <path class="cls-1" d="m109.67,198.86v-32.78c0-.32.16-.48.48-.48h3.66c.32,0,.48.16.48.48v32.78c0,.32-.16.48-.48.48h-3.66c-.32,0-.48-.16-.48-.48Z"/>
        <path class="cls-1" d="m122.97,197.32c-1.61-1.61-2.41-3.74-2.41-6.41v-16.82c0-2.67.8-4.81,2.41-6.44,1.61-1.62,3.73-2.43,6.36-2.43s4.81.81,6.44,2.43c1.62,1.62,2.43,3.77,2.43,6.44v16.82c0,2.67-.81,4.8-2.43,6.41-1.62,1.61-3.77,2.41-6.44,2.41s-4.76-.8-6.36-2.41Zm9.45-2.87c.77-.85,1.16-1.97,1.16-3.35v-17.26c0-1.38-.39-2.5-1.16-3.35s-1.8-1.28-3.09-1.28-2.26.43-3.01,1.28c-.76.85-1.13,1.97-1.13,3.35v17.26c0,1.38.38,2.5,1.13,3.35.75.85,1.76,1.28,3.01,1.28s2.31-.43,3.09-1.28Z"/>
        <path class="cls-1" d="m155.08,198.86v-32.78c0-.32.16-.48.48-.48h7.91c2.67,0,4.79.82,6.36,2.46,1.57,1.64,2.36,3.86,2.36,6.65v15.52c0,2.8-.79,5.01-2.36,6.65-1.58,1.64-3.7,2.46-6.36,2.46h-7.91c-.32,0-.48-.16-.48-.48Zm4.82-3.52l3.52-.05c1.22,0,2.2-.47,2.94-1.42.74-.95,1.12-2.24,1.16-3.88v-15.04c0-1.64-.37-2.94-1.11-3.9-.74-.96-1.74-1.45-2.99-1.45h-3.52c-.13,0-.19.06-.19.19v25.36c0,.13.06.19.19.19Z"/>
        <path class="cls-1" d="m194.03,169.6h-10.85c-.13,0-.19.06-.19.19v10.46c0,.13.06.19.19.19h6.65c.32,0,.48.16.48.48v3.04c0,.32-.16.48-.48.48h-6.65c-.13,0-.19.06-.19.19v10.51c0,.13.06.19.19.19h10.85c.32,0,.48.16.48.48v3.04c0,.32-.16.48-.48.48h-15.19c-.32,0-.48-.16-.48-.48v-32.78c0-.32.16-.48.48-.48h15.19c.32,0,.48.16.48.48v3.04c0,.32-.16.48-.48.48Z"/>
        <path class="cls-1" d="m212.47,197.34c-1.59-1.59-2.39-3.7-2.39-6.34v-17.11c0-2.63.8-4.74,2.39-6.32,1.59-1.57,3.69-2.36,6.29-2.36s4.75.79,6.34,2.36c1.59,1.58,2.39,3.68,2.39,6.32v.77c0,.32-.16.48-.48.48l-3.66.19c-.32,0-.48-.16-.48-.48v-1.25c0-1.32-.38-2.38-1.13-3.18-.76-.8-1.74-1.21-2.96-1.21s-2.2.4-2.94,1.21c-.74.8-1.11,1.86-1.11,3.18v17.74c0,1.32.37,2.38,1.11,3.18.74.8,1.72,1.21,2.94,1.21s2.21-.4,2.96-1.21c.75-.8,1.13-1.86,1.13-3.18v-1.25c0-.32.16-.48.48-.48l3.66.19c.32,0,.48.16.48.48v.72c0,2.64-.8,4.75-2.39,6.34s-3.7,2.39-6.34,2.39-4.7-.79-6.29-2.39Z"/>
        <path class="cls-1" d="m245.9,198.91l-1.06-5.54c0-.06-.02-.11-.07-.14-.05-.03-.1-.05-.17-.05h-7.86c-.06,0-.12.02-.17.05-.05.03-.07.08-.07.14l-1.01,5.54c-.03.29-.21.43-.53.43h-3.66c-.16,0-.28-.05-.36-.14-.08-.1-.1-.22-.07-.39l7.18-32.78c.06-.29.24-.43.53-.43h4.29c.32,0,.5.15.53.43l7.23,32.78v.1c0,.29-.14.43-.43.43h-3.76c-.29,0-.47-.14-.53-.43Zm-8.44-9.4h6.41c.1,0,.14-.06.14-.19l-3.28-17.11c-.03-.06-.06-.1-.1-.1s-.06.03-.1.1l-3.23,17.11c0,.13.05.19.14.19Z"/>
        <path class="cls-1" d="m268.03,198.95l-4.44-14.37c-.03-.1-.1-.14-.19-.14h-3.37c-.13,0-.19.06-.19.19v14.22c0,.32-.16.48-.48.48h-3.66c-.32,0-.48-.16-.48-.48v-32.78c0-.32.16-.48.48-.48h8.63c1.64,0,3.08.4,4.34,1.21s2.23,1.94,2.92,3.4c.69,1.46,1.04,3.13,1.04,4.99,0,2.02-.42,3.78-1.25,5.28-.84,1.5-1.98,2.58-3.42,3.25-.1.1-.13.19-.1.29l4.92,14.8.05.19c0,.22-.14.34-.43.34h-3.76c-.29,0-.48-.13-.58-.39Zm-8.2-29.17v10.8c0,.13.06.19.19.19h3.57c1.32,0,2.38-.51,3.18-1.52.8-1.01,1.21-2.35,1.21-4.03s-.4-3.11-1.21-4.12c-.8-1.01-1.86-1.52-3.18-1.52h-3.57c-.13,0-.19.06-.19.19Z"/>
        <path class="cls-1" d="m279.74,197.32c-1.61-1.61-2.41-3.74-2.41-6.41v-16.82c0-2.67.8-4.81,2.41-6.44,1.61-1.62,3.73-2.43,6.36-2.43s4.81.81,6.44,2.43c1.62,1.62,2.43,3.77,2.43,6.44v16.82c0,2.67-.81,4.8-2.43,6.41-1.62,1.61-3.77,2.41-6.44,2.41s-4.76-.8-6.36-2.41Zm9.45-2.87c.77-.85,1.16-1.97,1.16-3.35v-17.26c0-1.38-.39-2.5-1.16-3.35s-1.8-1.28-3.09-1.28-2.26.43-3.01,1.28c-.76.85-1.13,1.97-1.13,3.35v17.26c0,1.38.38,2.5,1.13,3.35.75.85,1.76,1.28,3.01,1.28s2.31-.43,3.09-1.28Z"/>
        <path class="cls-1" d="m315.32,165.6h3.62c.32,0,.48.16.48.48v32.78c0,.32-.16.48-.48.48h-4.15c-.26,0-.43-.13-.53-.39l-8.2-22.03c-.03-.06-.08-.09-.14-.07-.06.02-.1.06-.1.12l.05,21.89c0,.32-.16.48-.48.48h-3.66c-.32,0-.48-.16-.48-.48v-32.78c0-.32.16-.48.48-.48h4.1c.26,0,.43.13.53.39l8.24,22.03c.03.1.08.14.14.12.06-.02.1-.07.1-.17v-21.89c0-.32.16-.48.48-.48Z"/>
        <path class="cls-1" d="m326.36,198.86v-32.78c0-.32.16-.48.48-.48h7.91c2.67,0,4.79.82,6.36,2.46,1.57,1.64,2.36,3.86,2.36,6.65v15.52c0,2.8-.79,5.01-2.36,6.65-1.58,1.64-3.7,2.46-6.36,2.46h-7.91c-.32,0-.48-.16-.48-.48Zm4.82-3.52l3.52-.05c1.22,0,2.2-.47,2.94-1.42.74-.95,1.12-2.24,1.16-3.88v-15.04c0-1.64-.37-2.94-1.11-3.9-.74-.96-1.74-1.45-2.99-1.45h-3.52c-.13,0-.19.06-.19.19v25.36c0,.13.06.19.19.19Z"/>
        <path class="cls-1" d="m365.31,169.6h-10.85c-.13,0-.19.06-.19.19v10.46c0,.13.06.19.19.19h6.65c.32,0,.48.16.48.48v3.04c0,.32-.16.48-.48.48h-6.65c-.13,0-.19.06-.19.19v10.51c0,.13.06.19.19.19h10.85c.32,0,.48.16.48.48v3.04c0,.32-.16.48-.48.48h-15.19c-.32,0-.48-.16-.48-.48v-32.78c0-.32.16-.48.48-.48h15.19c.32,0,.48.16.48.48v3.04c0,.32-.16.48-.48.48Z"/>
        <path class="cls-1" d="m371.43,198.86v-32.78c0-.32.16-.48.48-.48h3.66c.32,0,.48.16.48.48v29.07c0,.13.06.19.19.19h10.8c.32,0,.48.16.48.48v3.04c0,.32-.16.48-.48.48h-15.14c-.32,0-.48-.16-.48-.48Z"/>
        <path class="cls-1" d="m407.68,169.6h-10.85c-.13,0-.19.06-.19.19v10.46c0,.13.06.19.19.19h6.65c.32,0,.48.16.48.48v3.04c0,.32-.16.48-.48.48h-6.65c-.13,0-.19.06-.19.19v10.51c0,.13.06.19.19.19h10.85c.32,0,.48.16.48.48v3.04c0,.32-.16.48-.48.48h-15.19c-.32,0-.48-.16-.48-.48v-32.78c0-.32.16-.48.48-.48h15.19c.32,0,.48.16.48.48v3.04c0,.32-.16.48-.48.48Z"/>
        <path class="cls-1" d="m430.53,166.08v3.04c0,.32-.16.48-.48.48h-6.31c-.13,0-.19.06-.19.19v29.07c0,.32-.16.48-.48.48h-3.66c-.32,0-.48-.16-.48-.48v-29.07c0-.13-.06-.19-.19-.19h-5.98c-.32,0-.48-.16-.48-.48v-3.04c0-.32.16-.48.48-.48h17.31c.32,0,.48.16.48.48Z"/>
      </g>
      <g>
        <path class="cls-1" d="m133.73,209.53v1.04c0,.26-.13.39-.39.39h-5.13c-.1,0-.15.05-.15.15v24.64c0,.26-.13.39-.39.39h-1.27c-.26,0-.39-.13-.39-.39v-24.64c0-.1-.05-.15-.15-.15h-4.82c-.26,0-.39-.13-.39-.39v-1.04c0-.26.13-.39.39-.39h12.3c.26,0,.39.13.39.39Z"/>
        <path class="cls-1" d="m137.88,234.66c-1.17-1.2-1.75-2.76-1.75-4.69v-14.62c0-1.95.58-3.53,1.74-4.72,1.16-1.2,2.69-1.79,4.59-1.79s3.44.6,4.63,1.79c1.18,1.2,1.77,2.77,1.77,4.72v14.62c0,1.93-.59,3.49-1.77,4.69-1.18,1.2-2.73,1.79-4.63,1.79s-3.4-.6-4.57-1.79Zm7.71-1.29c.81-.85,1.21-1.95,1.21-3.32v-14.77c0-1.36-.4-2.47-1.21-3.34s-1.86-1.29-3.14-1.29-2.29.43-3.09,1.29-1.2,1.97-1.2,3.34v14.77c0,1.36.4,2.47,1.2,3.32s1.83,1.27,3.09,1.27,2.33-.42,3.14-1.27Z"/>
        <path class="cls-1" d="m155.71,234.47c-1.16-1.32-1.74-3.09-1.74-5.3v-19.63c0-.26.13-.39.39-.39h1.27c.26,0,.39.13.39.39v19.86c0,1.57.39,2.83,1.18,3.8.78.96,1.82,1.45,3.1,1.45s2.33-.48,3.14-1.45c.81-.96,1.21-2.23,1.21-3.8v-19.86c0-.26.13-.39.39-.39h1.27c.26,0,.39.13.39.39v19.63c0,2.19-.59,3.95-1.77,5.28-1.18,1.34-2.73,2-4.63,2s-3.43-.66-4.59-1.99Z"/>
        <path class="cls-1" d="m182.94,235.83l-4.24-12.22c-.03-.08-.08-.12-.15-.12h-3.82c-.1,0-.15.05-.15.15v12.11c0,.26-.13.39-.39.39h-1.27c-.26,0-.39-.13-.39-.39v-26.22c0-.26.13-.39.39-.39h5.98c1.8,0,3.25.67,4.36,2.01,1.1,1.34,1.66,3.08,1.66,5.25,0,1.72-.37,3.19-1.12,4.4-.75,1.21-1.76,2.03-3.05,2.47-.1.03-.14.09-.12.19l4.36,12.26.04.15c0,.18-.12.27-.35.27h-1.27c-.23,0-.39-.1-.46-.31Zm-8.37-24.72v10.53c0,.1.05.15.15.15h3.93c1.26,0,2.28-.5,3.05-1.49.77-.99,1.16-2.29,1.16-3.91s-.39-2.96-1.16-3.95c-.77-.99-1.79-1.48-3.05-1.48h-3.93c-.1,0-.15.05-.15.15Z"/>
        <path class="cls-1" d="m201.1,235.8l-5.63-26.22v-.08c0-.23.12-.35.35-.35h1.43c.26,0,.4.12.42.35l4.55,22.68c.03.08.05.12.08.12s.05-.04.08-.12l4.47-22.68c.05-.23.19-.35.42-.35h1.35c.28,0,.4.14.35.42l-5.59,26.22c-.03.23-.17.35-.42.35h-1.43c-.23,0-.37-.12-.42-.35Z"/>
        <path class="cls-1" d="m213.52,235.76v-26.22c0-.26.13-.39.39-.39h1.27c.26,0,.39.13.39.39v26.22c0,.26-.13.39-.39.39h-1.27c-.26,0-.39-.13-.39-.39Z"/>
        <path class="cls-1" d="m232.07,235.83l-4.24-12.22c-.03-.08-.08-.12-.15-.12h-3.82c-.1,0-.15.05-.15.15v12.11c0,.26-.13.39-.39.39h-1.27c-.26,0-.39-.13-.39-.39v-26.22c0-.26.13-.39.39-.39h5.98c1.8,0,3.25.67,4.36,2.01,1.1,1.34,1.66,3.08,1.66,5.25,0,1.72-.37,3.19-1.12,4.4-.75,1.21-1.76,2.03-3.05,2.47-.1.03-.14.09-.12.19l4.36,12.26.04.15c0,.18-.12.27-.35.27h-1.27c-.23,0-.39-.1-.46-.31Zm-8.37-24.72v10.53c0,.1.05.15.15.15h3.93c1.26,0,2.28-.5,3.05-1.49.77-.99,1.16-2.29,1.16-3.91s-.39-2.96-1.16-3.95c-.77-.99-1.79-1.48-3.05-1.48h-3.93c-.1,0-.15.05-.15.15Z"/>
        <path class="cls-1" d="m249.89,209.53v1.04c0,.26-.13.39-.39.39h-5.13c-.1,0-.15.05-.15.15v24.64c0,.26-.13.39-.39.39h-1.27c-.26,0-.39-.13-.39-.39v-24.64c0-.1-.05-.15-.15-.15h-4.82c-.26,0-.39-.13-.39-.39v-1.04c0-.26.13-.39.39-.39h12.3c.26,0,.39.13.39.39Z"/>
        <path class="cls-1" d="m255.83,234.47c-1.16-1.32-1.74-3.09-1.74-5.3v-19.63c0-.26.13-.39.39-.39h1.27c.26,0,.39.13.39.39v19.86c0,1.57.39,2.83,1.18,3.8.78.96,1.82,1.45,3.1,1.45s2.33-.48,3.14-1.45c.81-.96,1.21-2.23,1.21-3.8v-19.86c0-.26.13-.39.39-.39h1.27c.26,0,.39.13.39.39v19.63c0,2.19-.59,3.95-1.77,5.28-1.18,1.34-2.73,2-4.63,2s-3.43-.66-4.59-1.99Z"/>
        <path class="cls-1" d="m281.97,235.8l-1.04-5.05c0-.05-.02-.09-.06-.12-.04-.03-.08-.04-.13-.04h-7.56c-.05,0-.1.01-.13.04-.04.03-.06.06-.06.12l-1.04,5.05c-.03.23-.17.35-.42.35h-1.27c-.13,0-.23-.04-.29-.12-.06-.08-.08-.18-.06-.31l5.86-26.22c.05-.23.19-.35.42-.35h1.54c.26,0,.4.12.42.35l5.9,26.22v.08c0,.23-.12.35-.35.35h-1.31c-.23,0-.37-.12-.42-.35Zm-8.45-6.9h6.83c.08,0,.12-.05.12-.15l-3.43-16.31c-.03-.08-.05-.12-.08-.12-.03,0-.05.04-.08.12l-3.47,16.31c0,.1.04.15.12.15Z"/>
        <path class="cls-1" d="m287.57,235.76v-26.22c0-.26.13-.39.39-.39h1.27c.26,0,.39.13.39.39v24.64c0,.1.05.15.15.15h9.02c.26,0,.39.13.39.39v1.04c0,.26-.13.39-.39.39h-10.84c-.26,0-.39-.13-.39-.39Z"/>
      </g>
      <line class="cls-2" x1="2.1" y1="153.28" x2="429.6" y2="153.28"/>
    </g>
  </g>
</svg>